<svg width="136" height="145" viewBox="0 0 136 145" fill="none" xmlns="http://www.w3.org/2000/svg">
<path d="M136 28.4958L123.61 133.337L67.9168 145L12.3768 133.354L0 28.4958H136Z" fill="#264DE4"/>
<path d="M113.003 126.661L123.591 37.0696H68V136.086L113.003 126.661Z" fill="#2965F1"/>
<path d="M28.3735 75.96L29.8995 88.8202H67.9999V75.96H28.3735Z" fill="#EBEBEB"/>
<path d="M67.9999 49.9302H67.9411H25.3074L26.8551 62.7907H67.9999V49.9302Z" fill="#EBEBEB"/>
<path d="M67.9999 122.74V109.36L67.9252 109.375L48.9635 105.507L47.7514 95.2505H38.5374H30.6602L33.0455 115.443L67.9215 122.756L67.9999 122.74Z" fill="#EBEBEB"/>
<path d="M32.0066 0H52.6278V6.51367H40.63V13.0273H52.6278V19.541H32.0066V0Z" fill="black"/>
<path d="M56.752 0H77.3731V5.66406H65.3754V6.79688H77.3731V19.8242H56.752V13.877H68.7497V12.7441H56.752V0Z" fill="black"/>
<path d="M81.4976 0H102.119V5.66406H90.121V6.79688H102.119V19.8242H81.4976V13.877H93.4953V12.7441H81.4976V0Z" fill="black"/>
<path d="M88.9063 88.8202L86.93 105.499L67.9409 109.371V122.75L102.845 115.443L103.101 113.271L107.102 79.4133L107.517 75.9599L110.591 49.9302H67.9409V62.7907H91.932L90.3828 75.9599H67.9409V88.8202H88.9063Z" fill="white"/>
</svg>
