<svg width="18" height="18" viewBox="0 0 18 18" fill="none" xmlns="http://www.w3.org/2000/svg">
<path d="M17 8C16.7348 8 16.4804 8.10536 16.2929 8.29289C16.1054 8.48043 16 8.73478 16 9V15C16 15.2652 15.8946 15.5196 15.7071 15.7071C15.5196 15.8946 15.2652 16 15 16H3C2.73478 16 2.48043 15.8946 2.29289 15.7071C2.10536 15.5196 2 15.2652 2 15V3C2 2.73478 2.10536 2.48043 2.29289 2.29289C2.48043 2.10536 2.73478 2 3 2H9C9.26522 2 9.51957 1.89464 9.70711 1.70711C9.89464 1.51957 10 1.26522 10 1C10 0.734784 9.89464 0.48043 9.70711 0.292893C9.51957 0.105357 9.26522 0 9 0H3C2.20435 0 1.44129 0.316071 0.87868 0.87868C0.316071 1.44129 0 2.20435 0 3V15C0 15.7956 0.316071 16.5587 0.87868 17.1213C1.44129 17.6839 2.20435 18 3 18H15C15.7956 18 16.5587 17.6839 17.1213 17.1213C17.6839 16.5587 18 15.7956 18 15V9C18 8.73478 17.8946 8.48043 17.7071 8.29289C17.5196 8.10536 17.2652 8 17 8Z" fill="white"/>
<path d="M12.9999 2H14.5799L8.28994 8.28C8.19621 8.37296 8.12182 8.48356 8.07105 8.60542C8.02028 8.72728 7.99414 8.85799 7.99414 8.99C7.99414 9.12201 8.02028 9.25272 8.07105 9.37458C8.12182 9.49644 8.19621 9.60704 8.28994 9.7C8.3829 9.79373 8.4935 9.86812 8.61536 9.91889C8.73722 9.96966 8.86793 9.9958 8.99994 9.9958C9.13195 9.9958 9.26266 9.96966 9.38452 9.91889C9.50638 9.86812 9.61698 9.79373 9.70994 9.7L15.9999 3.42V5C15.9999 5.26522 16.1053 5.51957 16.2928 5.70711C16.4804 5.89464 16.7347 6 16.9999 6C17.2652 6 17.5195 5.89464 17.707 5.70711C17.8946 5.51957 17.9999 5.26522 17.9999 5V1C17.9999 0.734784 17.8946 0.48043 17.707 0.292893C17.5195 0.105357 17.2652 0 16.9999 0H12.9999C12.7347 0 12.4804 0.105357 12.2928 0.292893C12.1053 0.48043 11.9999 0.734784 11.9999 1C11.9999 1.26522 12.1053 1.51957 12.2928 1.70711C12.4804 1.89464 12.7347 2 12.9999 2Z" fill="white"/>
</svg>
