<?xml version="1.0" standalone="no"?>
<!DOCTYPE svg PUBLIC "-//W3C//DTD SVG 20010904//EN"
 "http://www.w3.org/TR/2001/REC-SVG-20010904/DTD/svg10.dtd">
<svg version="1.0" xmlns="http://www.w3.org/2000/svg"
 width="25px" height="25px" viewBox="0 0 128.000000 128.000000"
 preserveAspectRatio="xMidYMid meet">

<g transform="translate(0.000000,128.000000) scale(0.100000,-0.100000)"
fill="#000000" stroke="none">
<path d="M361 1264 c-253 -68 -410 -331 -346 -579 67 -257 329 -415 580 -350
33 9 89 32 124 51 l64 35 22 -23 c12 -13 100 -107 194 -210 95 -104 179 -188
186 -188 8 0 19 9 25 20 9 17 -9 42 -156 202 -92 101 -181 197 -197 215 l-30
32 27 32 c62 73 106 198 106 299 0 307 -305 543 -599 464z m234 -66 c102 -25
215 -121 260 -220 72 -158 42 -338 -76 -463 -162 -171 -436 -171 -598 0 -154
162 -154 408 0 570 107 113 254 153 414 113z"/>
</g>
</svg>
